<?xml version="1.0" encoding="utf-8"?>
<!-- Generator: Adobe Illustrator 21.1.0, SVG Export Plug-In . SVG Version: 6.00 Build 0)  -->
<svg version="1.1" id="Calque_1" xmlns="http://www.w3.org/2000/svg" xmlns:xlink="http://www.w3.org/1999/xlink" x="0px" y="0px"
	 viewBox="0 0 289.8 164.2" style="enable-background:new 0 0 289.8 164.2;" xml:space="preserve">
<style type="text/css">
	.st0{fill:#FFFFFF;}
	.st1{fill:#F1D167;}
</style>
<g>
	<g>
		<path class="st0" d="M25.2,134.7c0.2,0,0.4,0.1,0.5,0.2c0.1,0.1,0.2,0.3,0.3,0.6l5.3,13.8c0,0,0,0.1,0,0.2c0,0.2-0.1,0.3-0.2,0.4
			c-0.1,0.1-0.3,0.2-0.4,0.2h-1.6c-0.3,0-0.5-0.1-0.6-0.2c-0.1-0.1-0.2-0.2-0.2-0.4l-0.9-2.4h-6.9l-0.9,2.4c0,0.1-0.1,0.2-0.2,0.4
			c-0.1,0.1-0.3,0.2-0.6,0.2h-1.6c-0.2,0-0.3-0.1-0.4-0.2c-0.1-0.1-0.2-0.3-0.2-0.4c0-0.1,0-0.1,0-0.2l5.3-13.8
			c0.1-0.2,0.2-0.4,0.3-0.6c0.1-0.1,0.3-0.2,0.5-0.2H25.2z M26.4,144.2L24,138l-2.4,6.2H26.4z"/>
		<path class="st0" d="M38.4,134.4c1,0,1.8,0.1,2.6,0.4c0.7,0.3,1.4,0.6,1.9,1c0.5,0.4,0.9,0.8,1.1,1.3c0.3,0.5,0.4,0.9,0.4,1.3
			c0,0.2,0,0.3-0.2,0.4c-0.1,0.1-0.3,0.2-0.4,0.2h-1.5c-0.2,0-0.4,0-0.6-0.1c-0.1-0.1-0.2-0.2-0.3-0.4c-0.2-0.4-0.6-0.7-1-0.9
			c-0.4-0.3-1.1-0.4-2-0.4c-0.4,0-0.7,0-1.1,0.1c-0.3,0.1-0.6,0.2-0.9,0.3c-0.3,0.2-0.5,0.3-0.6,0.6c-0.1,0.2-0.2,0.5-0.2,0.7
			c0,0.3,0.1,0.6,0.2,0.8c0.1,0.2,0.4,0.4,0.7,0.5c0.3,0.2,0.8,0.3,1.3,0.4c0.5,0.1,1.2,0.3,2,0.5c0.9,0.2,1.6,0.4,2.3,0.7
			c0.6,0.3,1.1,0.6,1.6,0.9c0.4,0.4,0.7,0.8,0.9,1.2s0.3,1,0.3,1.6c0,0.7-0.1,1.3-0.4,1.8c-0.3,0.6-0.7,1-1.2,1.4
			c-0.5,0.4-1.2,0.7-2,0.9c-0.8,0.2-1.7,0.3-2.6,0.3c-0.8,0-1.6-0.1-2.3-0.3c-0.7-0.2-1.4-0.5-2-0.9c-0.6-0.4-1-0.8-1.4-1.3
			c-0.3-0.5-0.5-1.1-0.6-1.7c0-0.2,0-0.3,0.2-0.4c0.1-0.1,0.3-0.2,0.4-0.2h1.5c0.2,0,0.4,0,0.6,0.1s0.2,0.2,0.3,0.4
			c0.1,0.2,0.2,0.4,0.4,0.6c0.1,0.2,0.3,0.4,0.6,0.5c0.2,0.1,0.6,0.3,0.9,0.4c0.4,0.1,0.8,0.1,1.4,0.1c0.4,0,0.9,0,1.3-0.1
			c0.4-0.1,0.8-0.2,1.1-0.3c0.3-0.2,0.6-0.3,0.7-0.6s0.3-0.5,0.3-0.8c0-0.3-0.1-0.6-0.3-0.8c-0.2-0.2-0.5-0.4-0.9-0.5
			c-0.4-0.1-0.9-0.3-1.5-0.4c-0.6-0.1-1.3-0.3-2.1-0.5c-0.7-0.2-1.4-0.4-1.9-0.6c-0.5-0.2-1-0.5-1.3-0.9c-0.4-0.3-0.6-0.8-0.8-1.2
			c-0.2-0.5-0.3-1-0.3-1.7c0-0.7,0.1-1.3,0.4-1.8c0.3-0.6,0.7-1,1.2-1.4c0.5-0.4,1.1-0.7,1.8-0.9C36.8,134.6,37.6,134.4,38.4,134.4z
			"/>
		<path class="st0" d="M47.9,149.9c-0.2,0-0.3-0.1-0.4-0.2c-0.1-0.1-0.2-0.3-0.2-0.4v-14.1c0-0.2,0.1-0.3,0.2-0.4
			c0.1-0.1,0.3-0.2,0.4-0.2h6.4c0.9,0,1.7,0.1,2.3,0.4c0.6,0.3,1.1,0.6,1.5,1.1c0.4,0.4,0.7,0.9,0.8,1.4s0.2,1,0.2,1.4
			c0,0.4-0.1,0.8-0.2,1.2c-0.1,0.3-0.3,0.6-0.4,0.9s-0.3,0.4-0.5,0.6c-0.2,0.2-0.3,0.3-0.4,0.3c0.4,0.3,0.9,0.7,1.2,1.3
			c0.4,0.6,0.6,1.3,0.6,2.1c0,0.6-0.1,1.1-0.3,1.6c-0.2,0.5-0.5,1-0.9,1.5c-0.4,0.4-0.9,0.8-1.5,1.1c-0.6,0.3-1.3,0.4-2,0.4H47.9z
			 M56.3,139.1c0-0.6-0.2-1-0.5-1.3c-0.3-0.3-0.9-0.4-1.7-0.4h-3.9v3.4h3.9c0.8,0,1.3-0.1,1.7-0.4C56.1,140,56.3,139.6,56.3,139.1z
			 M50.3,147.2h4c0.8,0,1.4-0.2,1.8-0.5c0.4-0.3,0.6-0.8,0.6-1.3s-0.2-1-0.6-1.4c-0.4-0.3-1-0.5-1.7-0.5h-4V147.2z"/>
		<path class="st0" d="M72.4,147.2c0.2,0,0.3,0.1,0.4,0.2c0.1,0.1,0.2,0.3,0.2,0.4v1.5c0,0.2-0.1,0.3-0.2,0.4
			c-0.1,0.1-0.3,0.2-0.4,0.2h-9.6c-0.2,0-0.3-0.1-0.4-0.2c-0.1-0.1-0.2-0.3-0.2-0.4v-14.1c0-0.2,0.1-0.3,0.2-0.4
			c0.1-0.1,0.3-0.2,0.4-0.2h1.8c0.2,0,0.3,0.1,0.4,0.2c0.1,0.1,0.2,0.3,0.2,0.4v11.9H72.4z"/>
		<path class="st0" d="M84.6,141.2c-0.9,0-1.5,0.2-1.9,0.6c-0.4,0.4-0.6,1-0.6,1.9v5.7c0,0.2-0.1,0.3-0.2,0.4
			c-0.1,0.1-0.2,0.2-0.4,0.2h-1.7c-0.2,0-0.3-0.1-0.4-0.2c-0.1-0.1-0.2-0.3-0.2-0.4v-10.2c0-0.2,0.1-0.3,0.2-0.4
			c0.1-0.1,0.3-0.2,0.4-0.2h1.7c0.2,0,0.3,0.1,0.4,0.2c0.1,0.1,0.2,0.3,0.2,0.4v0.5c0.4-0.3,0.8-0.6,1.2-0.8c0.4-0.2,1-0.3,1.7-0.3
			h1c0.2,0,0.3,0.1,0.4,0.2c0.1,0.1,0.2,0.3,0.2,0.4v1.4c0,0.2-0.1,0.3-0.2,0.4c-0.1,0.1-0.3,0.2-0.4,0.2H84.6z"/>
		<path class="st0" d="M87.7,144.3c0-0.8,0.1-1.6,0.4-2.3c0.2-0.7,0.6-1.3,1.1-1.9c0.5-0.5,1-0.9,1.7-1.3c0.7-0.3,1.4-0.5,2.2-0.5
			c0.8,0,1.6,0.1,2.2,0.4c0.7,0.3,1.2,0.7,1.7,1.2c0.5,0.5,0.8,1.1,1.1,1.8c0.2,0.7,0.4,1.4,0.4,2.1v1c0,0.2-0.1,0.3-0.2,0.4
			c-0.1,0.1-0.3,0.2-0.4,0.2h-7.3c0,0.3,0.1,0.6,0.2,0.9c0.1,0.3,0.3,0.5,0.6,0.6s0.5,0.3,0.8,0.4c0.3,0.1,0.6,0.1,0.9,0.1
			c0.5,0,0.8,0,1.1-0.1c0.3-0.1,0.5-0.2,0.7-0.4c0.2-0.1,0.3-0.2,0.4-0.2c0.1,0,0.2-0.1,0.4-0.1h1.7c0.2,0,0.3,0.1,0.4,0.2
			c0.1,0.1,0.2,0.3,0.2,0.4c0,0.2-0.1,0.5-0.3,0.8s-0.5,0.6-0.9,0.9c-0.4,0.3-0.9,0.6-1.6,0.8c-0.6,0.2-1.3,0.3-2.1,0.3
			c-0.8,0-1.6-0.1-2.2-0.4c-0.7-0.3-1.2-0.7-1.7-1.2c-0.5-0.5-0.8-1.1-1.1-1.9C87.8,145.9,87.7,145.1,87.7,144.3z M93,141
			c-0.4,0-0.8,0.1-1.1,0.2c-0.3,0.1-0.5,0.3-0.7,0.5c-0.2,0.2-0.4,0.4-0.5,0.7c-0.1,0.2-0.2,0.5-0.2,0.7h4.9c0-0.2-0.1-0.4-0.2-0.7
			c-0.1-0.2-0.2-0.5-0.4-0.7c-0.2-0.2-0.4-0.4-0.7-0.5C93.9,141,93.5,141,93,141z"/>
		<path class="st0" d="M103.6,149.3c0,0.2-0.1,0.3-0.2,0.4c-0.1,0.1-0.3,0.2-0.4,0.2h-1.7c-0.2,0-0.3-0.1-0.4-0.2
			c-0.1-0.1-0.2-0.3-0.2-0.4V135c0-0.2,0.1-0.3,0.2-0.4c0.1-0.1,0.3-0.2,0.4-0.2h1.7c0.2,0,0.3,0.1,0.4,0.2c0.1,0.1,0.2,0.3,0.2,0.4
			V149.3z"/>
		<path class="st0" d="M106.6,141.4c0.1-0.3,0.2-0.6,0.4-1c0.2-0.3,0.5-0.7,0.9-1c0.4-0.3,0.9-0.6,1.4-0.8c0.6-0.2,1.2-0.3,2-0.3
			s1.4,0.1,2,0.3c0.6,0.2,1.1,0.5,1.5,0.9c0.4,0.4,0.8,0.9,1,1.4c0.2,0.6,0.3,1.2,0.3,2v6.4c0,0.2-0.1,0.3-0.2,0.4
			c-0.1,0.1-0.3,0.2-0.4,0.2h-1.7c-0.2,0-0.3-0.1-0.4-0.2c-0.1-0.1-0.2-0.3-0.2-0.4v-0.7c-0.3,0.4-0.7,0.8-1.3,1.1
			c-0.6,0.3-1.3,0.4-2.2,0.4c-0.6,0-1.2-0.1-1.7-0.2c-0.5-0.2-0.9-0.4-1.2-0.7c-0.3-0.3-0.6-0.7-0.8-1.1c-0.2-0.4-0.3-0.9-0.3-1.4
			c0-1,0.4-1.8,1.1-2.4c0.7-0.6,1.7-1,2.9-1.2l3.6-0.6c0-0.6-0.2-1-0.6-1.3c-0.4-0.2-0.9-0.4-1.5-0.4c-0.4,0-0.6,0.1-0.9,0.2
			c-0.2,0.1-0.4,0.2-0.6,0.4c-0.1,0.1-0.3,0.2-0.4,0.2c-0.1,0-0.2,0.1-0.4,0.1h-2c-0.1,0-0.3,0-0.4-0.1
			C106.6,141.6,106.6,141.5,106.6,141.4z M110.3,147.5c0.5,0,0.9-0.1,1.3-0.2c0.4-0.1,0.7-0.3,1-0.6c0.3-0.2,0.5-0.5,0.6-0.8
			c0.1-0.3,0.2-0.6,0.2-0.9v-0.2l-3,0.5c-0.6,0.1-1,0.2-1.3,0.4c-0.3,0.2-0.4,0.5-0.4,0.8c0,0.3,0.2,0.5,0.5,0.7
			C109.5,147.5,109.8,147.5,110.3,147.5z"/>
		<path class="st0" d="M122.8,145.8c0,0.4,0.1,0.8,0.4,1.1c0.2,0.3,0.7,0.4,1.3,0.4h1.3c0.2,0,0.3,0.1,0.4,0.2
			c0.1,0.1,0.2,0.3,0.2,0.4v1.4c0,0.2-0.1,0.3-0.2,0.4c-0.1,0.1-0.3,0.2-0.4,0.2h-1.6c-1.4,0-2.4-0.3-3.1-1c-0.7-0.7-1.1-1.7-1.1-3
			v-4.7h-1.4c-0.2,0-0.3-0.1-0.4-0.2c-0.1-0.1-0.2-0.3-0.2-0.4v-1.4c0-0.2,0.1-0.3,0.2-0.4c0.1-0.1,0.3-0.2,0.4-0.2h1.4V135
			c0-0.2,0.1-0.3,0.2-0.4c0.1-0.1,0.3-0.2,0.4-0.2h1.7c0.2,0,0.3,0.1,0.4,0.2c0.1,0.1,0.2,0.3,0.2,0.4v3.6h2.8
			c0.2,0,0.3,0.1,0.4,0.2c0.1,0.1,0.2,0.3,0.2,0.4v1.4c0,0.2-0.1,0.3-0.2,0.4c-0.1,0.1-0.3,0.2-0.4,0.2h-2.8V145.8z"/>
		<path class="st0" d="M130.9,134.4c0.2,0,0.3,0.1,0.4,0.2c0.1,0.1,0.2,0.3,0.2,0.4v1.7c0,0.2-0.1,0.3-0.2,0.4
			c-0.1,0.1-0.3,0.2-0.4,0.2H129c-0.2,0-0.3-0.1-0.4-0.2c-0.1-0.1-0.2-0.3-0.2-0.4V135c0-0.2,0.1-0.3,0.2-0.4
			c0.1-0.1,0.3-0.2,0.4-0.2H130.9z M131.4,149.3c0,0.2-0.1,0.3-0.2,0.4c-0.1,0.1-0.3,0.2-0.4,0.2h-1.7c-0.2,0-0.3-0.1-0.4-0.2
			c-0.1-0.1-0.2-0.3-0.2-0.4v-10.2c0-0.2,0.1-0.3,0.2-0.4c0.1-0.1,0.3-0.2,0.4-0.2h1.7c0.2,0,0.3,0.1,0.4,0.2
			c0.1,0.1,0.2,0.3,0.2,0.4V149.3z"/>
		<path class="st0" d="M139.4,138.4c0.8,0,1.5,0.1,2.2,0.4c0.6,0.2,1.2,0.6,1.7,1c0.5,0.4,0.9,0.9,1.1,1.5c0.3,0.6,0.4,1.2,0.5,1.9
			c0,0.1,0,0.3,0,0.5c0,0.2,0,0.4,0,0.6c0,0.2,0,0.4,0,0.6c0,0.2,0,0.4,0,0.5c-0.1,0.7-0.2,1.3-0.5,1.9c-0.3,0.6-0.7,1.1-1.1,1.5
			c-0.5,0.4-1,0.8-1.7,1s-1.4,0.4-2.2,0.4c-0.8,0-1.5-0.1-2.2-0.4c-0.7-0.2-1.2-0.6-1.7-1c-0.5-0.4-0.8-0.9-1.1-1.5
			c-0.3-0.6-0.4-1.2-0.5-1.9c0-0.1,0-0.3,0-0.5c0-0.2,0-0.4,0-0.6c0-0.2,0-0.4,0-0.6c0-0.2,0-0.4,0-0.5c0-0.7,0.2-1.3,0.5-1.9
			c0.3-0.6,0.7-1.1,1.1-1.5c0.5-0.4,1-0.8,1.7-1C137.9,138.5,138.6,138.4,139.4,138.4z M142,143.3c0-0.5-0.1-0.8-0.3-1.1
			c-0.2-0.3-0.4-0.5-0.6-0.7c-0.2-0.2-0.5-0.3-0.8-0.4c-0.3-0.1-0.6-0.1-0.9-0.1c-0.3,0-0.6,0-0.9,0.1c-0.3,0.1-0.6,0.2-0.8,0.4
			c-0.2,0.2-0.5,0.4-0.6,0.7c-0.2,0.3-0.3,0.7-0.3,1.1c0,0.1,0,0.3,0,0.4c0,0.2,0,0.4,0,0.5c0,0.2,0,0.4,0,0.6c0,0.2,0,0.3,0,0.4
			c0,0.4,0.2,0.8,0.3,1.1c0.2,0.3,0.4,0.5,0.6,0.7c0.2,0.2,0.5,0.3,0.8,0.4c0.3,0.1,0.6,0.1,0.9,0.1c0.3,0,0.6,0,0.9-0.1
			c0.3-0.1,0.6-0.2,0.8-0.4c0.2-0.2,0.4-0.4,0.6-0.7c0.2-0.3,0.3-0.7,0.3-1.1c0-0.1,0-0.2,0-0.4c0-0.2,0-0.4,0-0.6
			c0-0.2,0-0.4,0-0.5C142,143.5,142,143.4,142,143.3z"/>
		<path class="st0" d="M158,149.3c0,0.2-0.1,0.3-0.2,0.4c-0.1,0.1-0.3,0.2-0.4,0.2h-1.7c-0.2,0-0.3-0.1-0.4-0.2
			c-0.1-0.1-0.2-0.3-0.2-0.4v-5.5c0-0.9-0.2-1.6-0.6-2.1c-0.4-0.5-1-0.8-1.9-0.8c-0.8,0-1.4,0.3-1.8,0.8c-0.4,0.5-0.7,1.2-0.7,2.1
			v5.5c0,0.2-0.1,0.3-0.2,0.4c-0.1,0.1-0.2,0.2-0.4,0.2h-1.7c-0.2,0-0.3-0.1-0.4-0.2c-0.1-0.1-0.2-0.3-0.2-0.4v-10.2
			c0-0.2,0.1-0.3,0.2-0.4c0.1-0.1,0.3-0.2,0.4-0.2h1.7c0.2,0,0.3,0.1,0.4,0.2c0.1,0.1,0.2,0.3,0.2,0.4v0.5c0.4-0.4,0.8-0.7,1.3-0.9
			c0.5-0.2,1.1-0.4,1.8-0.4c0.9,0,1.6,0.1,2.2,0.4c0.6,0.3,1.1,0.6,1.4,1.1c0.4,0.5,0.6,1,0.8,1.6c0.2,0.6,0.2,1.3,0.2,2V149.3z"/>
		<path class="st0" d="M167.1,146.7c0-0.2,0-0.3-0.2-0.4c-0.1-0.1-0.3-0.2-0.5-0.3c-0.3-0.1-0.6-0.2-1-0.3c-0.4-0.1-1-0.2-1.6-0.3
			c-0.6-0.1-1.2-0.3-1.6-0.5c-0.4-0.2-0.8-0.5-1-0.8c-0.3-0.3-0.4-0.6-0.5-1c-0.1-0.4-0.2-0.8-0.2-1.2s0.1-0.9,0.3-1.3
			c0.2-0.4,0.5-0.8,0.9-1.1c0.4-0.3,0.9-0.6,1.4-0.8c0.6-0.2,1.2-0.3,1.9-0.3c0.7,0,1.3,0.1,1.9,0.2c0.6,0.2,1,0.4,1.4,0.6
			c0.4,0.3,0.7,0.6,0.9,0.9s0.3,0.7,0.4,1c0,0.2,0,0.3-0.2,0.4c-0.1,0.1-0.3,0.2-0.4,0.2h-1.7c-0.2,0-0.4,0-0.5-0.1
			c-0.1-0.1-0.2-0.2-0.4-0.3c-0.1-0.1-0.3-0.2-0.5-0.3c-0.2-0.1-0.5-0.1-1-0.1c-0.4,0-0.8,0.1-1.2,0.2c-0.3,0.1-0.5,0.4-0.5,0.7
			c0,0.2,0,0.3,0.1,0.4c0.1,0.1,0.2,0.2,0.5,0.3c0.2,0.1,0.5,0.2,0.9,0.3c0.4,0.1,0.9,0.2,1.6,0.3c1.3,0.3,2.2,0.7,2.7,1.3
			c0.5,0.6,0.8,1.3,0.8,2.2c0,0.4-0.1,0.9-0.3,1.3c-0.2,0.4-0.5,0.8-0.9,1.1c-0.4,0.3-0.9,0.6-1.5,0.8c-0.6,0.2-1.3,0.3-2,0.3
			c-0.8,0-1.5-0.1-2-0.3c-0.6-0.2-1.1-0.4-1.5-0.7c-0.4-0.3-0.7-0.6-0.9-1c-0.2-0.4-0.3-0.7-0.3-1.1c0-0.2,0-0.3,0.2-0.4
			c0.1-0.1,0.3-0.2,0.4-0.2h1.7c0.2,0,0.4,0.1,0.5,0.2c0.1,0.1,0.2,0.2,0.4,0.3c0.1,0.1,0.3,0.2,0.6,0.3c0.2,0.1,0.6,0.2,1.1,0.2
			c0.2,0,0.4,0,0.7,0c0.2,0,0.4-0.1,0.6-0.1c0.2-0.1,0.4-0.2,0.5-0.3S167.1,146.8,167.1,146.7z"/>
		<path class="st0" d="M187.3,149.9c-0.2,0-0.4-0.1-0.6-0.2c-0.1-0.1-0.2-0.2-0.3-0.3l-6.1-9.1v9c0,0.2-0.1,0.3-0.2,0.4
			c-0.1,0.1-0.3,0.2-0.4,0.2H178c-0.2,0-0.3-0.1-0.4-0.2c-0.1-0.1-0.2-0.3-0.2-0.4v-14.1c0-0.2,0.1-0.3,0.2-0.4
			c0.1-0.1,0.3-0.2,0.4-0.2h1.5c0.2,0,0.4,0.1,0.6,0.2c0.1,0.1,0.2,0.2,0.3,0.3l6.1,9.1v-9c0-0.2,0.1-0.3,0.2-0.4
			c0.1-0.1,0.3-0.2,0.4-0.2h1.8c0.2,0,0.3,0.1,0.4,0.2c0.1,0.1,0.2,0.3,0.2,0.4v14.1c0,0.2-0.1,0.3-0.2,0.4
			c-0.1,0.1-0.3,0.2-0.4,0.2H187.3z"/>
		<path class="st0" d="M197.6,138.4c0.8,0,1.5,0.1,2.2,0.4c0.7,0.2,1.2,0.6,1.7,1c0.5,0.4,0.9,0.9,1.1,1.5c0.3,0.6,0.4,1.2,0.5,1.9
			c0,0.1,0,0.3,0,0.5c0,0.2,0,0.4,0,0.6c0,0.2,0,0.4,0,0.6c0,0.2,0,0.4,0,0.5c-0.1,0.7-0.2,1.3-0.5,1.9c-0.3,0.6-0.7,1.1-1.1,1.5
			c-0.5,0.4-1,0.8-1.7,1c-0.6,0.2-1.4,0.4-2.2,0.4c-0.8,0-1.5-0.1-2.2-0.4s-1.2-0.6-1.7-1c-0.5-0.4-0.8-0.9-1.1-1.5
			c-0.3-0.6-0.4-1.2-0.5-1.9c0-0.1,0-0.3,0-0.5c0-0.2,0-0.4,0-0.6c0-0.2,0-0.4,0-0.6c0-0.2,0-0.4,0-0.5c0-0.7,0.2-1.3,0.5-1.9
			c0.3-0.6,0.7-1.1,1.1-1.5c0.5-0.4,1-0.8,1.7-1C196.1,138.5,196.8,138.4,197.6,138.4z M200.2,143.3c0-0.5-0.2-0.8-0.3-1.1
			c-0.2-0.3-0.4-0.5-0.6-0.7c-0.2-0.2-0.5-0.3-0.8-0.4c-0.3-0.1-0.6-0.1-0.9-0.1c-0.3,0-0.6,0-0.9,0.1c-0.3,0.1-0.6,0.2-0.8,0.4
			c-0.2,0.2-0.5,0.4-0.6,0.7c-0.2,0.3-0.3,0.7-0.3,1.1c0,0.1,0,0.3,0,0.4c0,0.2,0,0.4,0,0.5c0,0.2,0,0.4,0,0.6c0,0.2,0,0.3,0,0.4
			c0,0.4,0.1,0.8,0.3,1.1c0.2,0.3,0.4,0.5,0.6,0.7c0.2,0.2,0.5,0.3,0.8,0.4c0.3,0.1,0.6,0.1,0.9,0.1c0.3,0,0.6,0,0.9-0.1
			c0.3-0.1,0.6-0.2,0.8-0.4c0.2-0.2,0.5-0.4,0.6-0.7c0.2-0.3,0.3-0.7,0.3-1.1c0-0.1,0-0.2,0-0.4c0-0.2,0-0.4,0-0.6
			c0-0.2,0-0.4,0-0.5C200.3,143.5,200.3,143.4,200.2,143.3z"/>
		<path class="st0" d="M210.9,141.2c-0.9,0-1.5,0.2-1.9,0.6c-0.4,0.4-0.6,1-0.6,1.9v5.7c0,0.2-0.1,0.3-0.2,0.4
			c-0.1,0.1-0.3,0.2-0.4,0.2h-1.7c-0.2,0-0.3-0.1-0.4-0.2c-0.1-0.1-0.2-0.3-0.2-0.4v-10.2c0-0.2,0.1-0.3,0.2-0.4
			c0.1-0.1,0.3-0.2,0.4-0.2h1.7c0.2,0,0.3,0.1,0.4,0.2c0.1,0.1,0.2,0.3,0.2,0.4v0.5c0.4-0.3,0.8-0.6,1.2-0.8c0.4-0.2,1-0.3,1.7-0.3
			h1c0.2,0,0.3,0.1,0.4,0.2c0.1,0.1,0.2,0.3,0.2,0.4v1.4c0,0.2-0.1,0.3-0.2,0.4c-0.1,0.1-0.2,0.2-0.4,0.2H210.9z"/>
		<path class="st0" d="M218.9,138.4c0.4,0,0.9,0,1.2,0.1c0.4,0.1,0.7,0.2,0.9,0.3c0.3,0.1,0.5,0.3,0.7,0.4c0.2,0.2,0.3,0.3,0.5,0.4
			V135c0-0.2,0.1-0.3,0.2-0.4c0.1-0.1,0.3-0.2,0.4-0.2h1.7c0.2,0,0.3,0.1,0.4,0.2c0.1,0.1,0.2,0.3,0.2,0.4v14.3
			c0,0.2-0.1,0.3-0.2,0.4c-0.1,0.1-0.3,0.2-0.4,0.2h-1.7c-0.2,0-0.3-0.1-0.4-0.2c-0.1-0.1-0.2-0.3-0.2-0.4v-0.5
			c-0.1,0.1-0.3,0.3-0.5,0.4c-0.2,0.2-0.4,0.3-0.7,0.4c-0.3,0.1-0.6,0.2-0.9,0.3c-0.4,0.1-0.8,0.1-1.2,0.1c-0.7,0-1.4-0.1-2-0.4
			c-0.6-0.3-1.1-0.7-1.5-1.1c-0.4-0.5-0.7-1-1-1.6c-0.2-0.6-0.4-1.3-0.4-1.9c0-0.2,0-0.5,0-0.8c0-0.3,0-0.5,0-0.8
			c0-0.7,0.2-1.3,0.4-1.9c0.2-0.6,0.6-1.2,1-1.6c0.4-0.5,0.9-0.9,1.5-1.1C217.5,138.5,218.1,138.4,218.9,138.4z M216.8,143.6
			c0,0.4,0,0.8,0,1.2c0.1,0.9,0.4,1.6,0.9,2c0.5,0.4,1.1,0.6,1.8,0.6c0.7,0,1.3-0.2,1.8-0.6c0.5-0.4,0.8-1,0.8-1.8
			c0-0.2,0-0.5,0-0.8c0-0.3,0-0.6,0-0.8c-0.1-0.8-0.4-1.4-0.8-1.8s-1.1-0.7-1.8-0.7c-0.7,0-1.3,0.2-1.8,0.6
			C217.2,142,216.9,142.7,216.8,143.6z"/>
		<path class="st0" d="M228.5,144.7c-0.2,0-0.3-0.1-0.4-0.2c-0.1-0.1-0.2-0.3-0.2-0.4v-1.4c0-0.2,0.1-0.3,0.2-0.4
			c0.1-0.1,0.3-0.2,0.4-0.2h6.7c0.2,0,0.3,0.1,0.4,0.2c0.1,0.1,0.2,0.3,0.2,0.4v1.4c0,0.2-0.1,0.3-0.2,0.4c-0.1,0.1-0.3,0.2-0.4,0.2
			H228.5z"/>
		<path class="st0" d="M243.8,134.4c1,0,1.8,0.1,2.6,0.4c0.7,0.3,1.4,0.6,1.9,1c0.5,0.4,0.9,0.8,1.1,1.3c0.3,0.5,0.4,0.9,0.4,1.3
			c0,0.2,0,0.3-0.2,0.4c-0.1,0.1-0.3,0.2-0.4,0.2h-1.5c-0.2,0-0.4,0-0.6-0.1c-0.1-0.1-0.2-0.2-0.3-0.4c-0.2-0.4-0.6-0.7-1-0.9
			c-0.4-0.3-1.1-0.4-2-0.4c-0.4,0-0.7,0-1.1,0.1c-0.3,0.1-0.6,0.2-0.9,0.3c-0.3,0.2-0.5,0.3-0.6,0.6c-0.1,0.2-0.2,0.5-0.2,0.7
			c0,0.3,0.1,0.6,0.2,0.8c0.1,0.2,0.4,0.4,0.7,0.5c0.3,0.2,0.8,0.3,1.3,0.4c0.5,0.1,1.2,0.3,2,0.5c0.9,0.2,1.6,0.4,2.3,0.7
			c0.6,0.3,1.1,0.6,1.6,0.9c0.4,0.4,0.7,0.8,0.9,1.2c0.2,0.5,0.3,1,0.3,1.6c0,0.7-0.1,1.3-0.4,1.8c-0.3,0.6-0.7,1-1.2,1.4
			c-0.5,0.4-1.2,0.7-2,0.9c-0.8,0.2-1.7,0.3-2.6,0.3c-0.8,0-1.6-0.1-2.3-0.3c-0.7-0.2-1.4-0.5-2-0.9c-0.6-0.4-1-0.8-1.4-1.3
			c-0.3-0.5-0.5-1.1-0.6-1.7c0-0.2,0-0.3,0.2-0.4c0.1-0.1,0.3-0.2,0.4-0.2h1.5c0.2,0,0.4,0,0.6,0.1s0.2,0.2,0.3,0.4
			c0.1,0.2,0.2,0.4,0.4,0.6s0.3,0.4,0.6,0.5c0.2,0.1,0.6,0.3,0.9,0.4c0.4,0.1,0.8,0.1,1.4,0.1c0.4,0,0.9,0,1.3-0.1
			c0.4-0.1,0.8-0.2,1.1-0.3c0.3-0.2,0.6-0.3,0.7-0.6s0.3-0.5,0.3-0.8c0-0.3-0.1-0.6-0.3-0.8c-0.2-0.2-0.5-0.4-0.9-0.5
			c-0.4-0.1-0.9-0.3-1.5-0.4c-0.6-0.1-1.3-0.3-2.1-0.5c-0.7-0.2-1.4-0.4-1.9-0.6c-0.5-0.2-1-0.5-1.3-0.9c-0.4-0.3-0.6-0.8-0.8-1.2
			c-0.2-0.5-0.3-1-0.3-1.7c0-0.7,0.1-1.3,0.4-1.8c0.3-0.6,0.7-1,1.2-1.4c0.5-0.4,1.1-0.7,1.8-0.9C242.2,134.6,243,134.4,243.8,134.4
			z"/>
		<path class="st0" d="M252.4,139.2c0-0.2,0.1-0.3,0.2-0.4c0.1-0.1,0.3-0.2,0.4-0.2h1.7c0.2,0,0.3,0.1,0.4,0.2
			c0.1,0.1,0.2,0.3,0.2,0.4v5.5c0,0.9,0.2,1.6,0.6,2.1c0.4,0.5,1,0.8,1.8,0.8c0.8,0,1.4-0.3,1.8-0.8c0.4-0.5,0.6-1.2,0.6-2.1v-5.5
			c0-0.2,0.1-0.3,0.2-0.4c0.1-0.1,0.3-0.2,0.4-0.2h1.7c0.2,0,0.3,0.1,0.4,0.2c0.1,0.1,0.2,0.3,0.2,0.4v10.2c0,0.2-0.1,0.3-0.2,0.4
			c-0.1,0.1-0.3,0.2-0.4,0.2h-1.7c-0.2,0-0.3-0.1-0.4-0.2c-0.1-0.1-0.2-0.3-0.2-0.4v-0.5c-0.3,0.3-0.7,0.6-1.2,0.9
			c-0.5,0.3-1.1,0.4-1.8,0.4c-0.9,0-1.6-0.1-2.2-0.4c-0.6-0.3-1-0.6-1.4-1.1c-0.4-0.5-0.6-1-0.7-1.6c-0.1-0.6-0.2-1.3-0.2-2V139.2z"
			/>
		<path class="st0" d="M270.2,138.4c0.4,0,0.9,0,1.2,0.1c0.4,0.1,0.7,0.2,0.9,0.3c0.3,0.1,0.5,0.3,0.7,0.4c0.2,0.2,0.3,0.3,0.5,0.4
			V135c0-0.2,0.1-0.3,0.2-0.4c0.1-0.1,0.3-0.2,0.4-0.2h1.7c0.2,0,0.3,0.1,0.4,0.2c0.1,0.1,0.2,0.3,0.2,0.4v14.3
			c0,0.2-0.1,0.3-0.2,0.4c-0.1,0.1-0.3,0.2-0.4,0.2H274c-0.2,0-0.3-0.1-0.4-0.2c-0.1-0.1-0.2-0.3-0.2-0.4v-0.5
			c-0.1,0.1-0.3,0.3-0.5,0.4c-0.2,0.2-0.4,0.3-0.7,0.4c-0.3,0.1-0.6,0.2-0.9,0.3c-0.4,0.1-0.8,0.1-1.2,0.1c-0.7,0-1.4-0.1-2-0.4
			c-0.6-0.3-1.1-0.7-1.5-1.1c-0.4-0.5-0.7-1-1-1.6c-0.2-0.6-0.4-1.3-0.4-1.9c0-0.2,0-0.5,0-0.8c0-0.3,0-0.5,0-0.8
			c0-0.7,0.2-1.3,0.4-1.9c0.2-0.6,0.6-1.2,1-1.6c0.4-0.5,0.9-0.9,1.5-1.1C268.8,138.5,269.4,138.4,270.2,138.4z M268.1,143.6
			c0,0.4,0,0.8,0,1.2c0.1,0.9,0.4,1.6,0.9,2c0.5,0.4,1.1,0.6,1.8,0.6c0.7,0,1.3-0.2,1.8-0.6c0.5-0.4,0.8-1,0.8-1.8
			c0-0.2,0-0.5,0-0.8c0-0.3,0-0.6,0-0.8c-0.1-0.8-0.4-1.4-0.8-1.8c-0.5-0.4-1.1-0.7-1.8-0.7c-0.7,0-1.3,0.2-1.8,0.6
			C268.5,142,268.2,142.7,268.1,143.6z"/>
	</g>
	<g>
		<path class="st1" d="M16.3,98.5c0-0.5,0.2-0.9,0.5-1.3c0.4-0.4,0.8-0.5,1.3-0.5h70.2c0.5,0,0.9,0.2,1.3,0.5
			c0.4,0.4,0.5,0.8,0.5,1.3v5c0,0.5-0.2,0.9-0.5,1.3s-0.8,0.5-1.3,0.5H18.2c-0.5,0-0.9-0.2-1.3-0.5c-0.4-0.4-0.5-0.8-0.5-1.3V98.5z"
			/>
	</g>
	<g>
		<g>
			<path class="st0" d="M144.1,75.1c0.5,0,0.9,0.2,1.3,0.5s0.5,0.8,0.5,1.3v4.8c0,0.5-0.2,0.9-0.5,1.3c-0.4,0.4-0.8,0.5-1.3,0.5
				h-21.7v13.2h20.3c0.5,0,0.9,0.2,1.3,0.5c0.4,0.4,0.5,0.8,0.5,1.3v4.8c0,0.5-0.2,0.9-0.5,1.3c-0.4,0.4-0.8,0.5-1.3,0.5h-20.3v15.6
				c0,0.5-0.2,0.9-0.5,1.3c-0.4,0.4-0.8,0.5-1.3,0.5h-5.5c-0.5,0-0.9-0.2-1.3-0.5c-0.4-0.4-0.5-0.8-0.5-1.3V76.9
				c0-0.5,0.2-0.9,0.5-1.3c0.4-0.4,0.8-0.5,1.3-0.5H144.1z"/>
			<path class="st0" d="M212.3,74.4c3,0,5.7,0.4,8,1.2c2.3,0.8,4.2,1.8,5.8,3.1c1.5,1.2,2.7,2.6,3.5,4c0.8,1.5,1.2,2.9,1.3,4.2
				c0,0.5-0.1,1-0.5,1.3c-0.4,0.3-0.8,0.5-1.3,0.5h-4.8c-0.8,0-1.3-0.1-1.7-0.4c-0.4-0.3-0.7-0.7-1.1-1.2c-0.7-1.1-1.7-2.1-3.1-3
				c-1.4-0.8-3.4-1.3-6.1-1.3c-1.2,0-2.3,0.1-3.4,0.4c-1.1,0.2-2,0.6-2.8,1.1c-0.8,0.5-1.4,1.1-1.9,1.7c-0.5,0.7-0.7,1.4-0.7,2.3
				c0,1,0.2,1.9,0.6,2.5c0.4,0.7,1.2,1.2,2.2,1.7c1,0.5,2.4,0.9,4,1.3c1.7,0.4,3.8,0.9,6.2,1.4c2.7,0.6,5.1,1.3,7,2.1
				c2,0.8,3.6,1.7,4.8,2.9c1.2,1.1,2.2,2.4,2.8,3.8c0.6,1.4,0.9,3.1,0.9,5c0,2-0.5,3.9-1.4,5.7c-0.9,1.7-2.2,3.2-3.9,4.5
				c-1.7,1.2-3.7,2.2-6.2,3s-5.2,1.1-8.2,1.1c-2.5,0-5-0.3-7.3-0.9c-2.3-0.6-4.4-1.5-6.1-2.6c-1.8-1.2-3.2-2.5-4.3-4.2
				c-1.1-1.6-1.7-3.4-1.8-5.4c0-0.5,0.1-1,0.5-1.3c0.4-0.3,0.8-0.5,1.3-0.5h4.8c0.8,0,1.4,0.1,1.8,0.4c0.4,0.3,0.7,0.7,1,1.2
				c0.3,0.6,0.7,1.2,1.2,1.8c0.5,0.6,1.1,1.1,1.8,1.6s1.7,0.8,2.9,1.1c1.2,0.3,2.6,0.4,4.3,0.4c1.4,0,2.7-0.1,3.9-0.3
				c1.3-0.2,2.4-0.5,3.3-1c1-0.5,1.7-1.1,2.3-1.8s0.9-1.6,0.9-2.6c0-1-0.3-1.8-1-2.4c-0.6-0.6-1.6-1.2-2.9-1.6
				c-1.3-0.5-2.9-0.9-4.8-1.3c-1.9-0.4-4.1-0.9-6.6-1.6c-2.3-0.5-4.2-1.2-5.9-1.9c-1.7-0.7-3.1-1.7-4.2-2.8
				c-1.1-1.1-1.9-2.4-2.5-3.8c-0.5-1.5-0.8-3.2-0.8-5.3c0-2,0.4-3.9,1.4-5.6c0.9-1.7,2.1-3.2,3.7-4.4c1.6-1.2,3.5-2.2,5.7-2.9
				C207.4,74.7,209.8,74.4,212.3,74.4z"/>
			<path class="st0" d="M236.5,92.8c0.1-2.5,0.6-4.9,1.5-7.2c0.8-2.2,2.1-4.2,3.7-5.8c1.6-1.7,3.7-3,6.1-3.9c2.4-1,5.3-1.5,8.7-1.5
				c3.3,0,6.2,0.5,8.6,1.4c2.4,1,4.5,2.3,6.1,3.9s2.9,3.6,3.7,5.8c0.9,2.2,1.4,4.6,1.5,7.2c0,0.9,0.1,1.8,0.1,2.9c0,1,0,2.1,0,3.2
				c0,1.1,0,2.2,0,3.2c0,1-0.1,2-0.1,2.9c-0.1,2.5-0.6,4.9-1.5,7.2c-0.8,2.2-2.1,4.2-3.7,5.8s-3.7,3-6.1,3.9c-2.5,1-5.4,1.4-8.7,1.4
				c-3.4,0-6.2-0.5-8.7-1.4c-2.4-1-4.5-2.3-6.1-3.9c-1.6-1.7-2.9-3.6-3.7-5.8c-0.8-2.2-1.3-4.6-1.5-7.2c0-0.9-0.1-1.8-0.1-2.9
				c0-1,0-2.1,0-3.2c0-1.1,0-2.2,0-3.2C236.4,94.6,236.4,93.7,236.5,92.8z M267.2,93.1c-0.2-3.3-1.2-5.8-3.2-7.6
				c-1.9-1.8-4.5-2.7-7.6-2.7c-3.2,0-5.7,0.9-7.6,2.7c-1.9,1.8-3,4.3-3.2,7.6c-0.1,1.7-0.1,3.6-0.1,5.7s0,4,0.1,5.7
				c0.2,3.3,1.2,5.8,3.2,7.5c1.9,1.8,4.5,2.6,7.6,2.6c3.2,0,5.7-0.9,7.6-2.6c1.9-1.8,3-4.3,3.2-7.5c0.1-1.7,0.1-3.6,0.1-5.7
				S267.3,94.9,267.2,93.1z"/>
		</g>
		<path class="st0" d="M191,120.3l-16.6-42.9c-0.3-0.8-0.6-1.3-1-1.7c-0.4-0.4-0.9-0.6-1.6-0.6h-7.5c-0.7,0-1.3,0.2-1.6,0.6
			c-0.4,0.4-0.7,1-1,1.7L145,120.3c0,0.1-0.1,0.3-0.1,0.5c0,0.5,0.2,0.9,0.5,1.3c0.4,0.4,0.8,0.5,1.3,0.5h4.9c0.9,0,1.5-0.2,1.9-0.6
			s0.6-0.8,0.7-1.1l6-15.6h15.3l6,15.6c0.1,0.4,0.4,0.7,0.7,1.1c0.4,0.4,1,0.6,1.9,0.6h4.9c0.5,0,0.9-0.2,1.3-0.5
			c0.4-0.4,0.5-0.8,0.5-1.3C191,120.6,191,120.4,191,120.3z M168,85.5l4.3,11.1h-8.6L168,85.5z"/>
	</g>
	<g>
		<g>
			<path class="st0" d="M137.5,14.8c5.7,0,10,1.3,12.9,3.9c2.9,2.6,4.4,6.3,4.4,10.9c0,3.3-0.8,6.1-2.3,8.5
				c-1.5,2.3-3.7,4.1-6.7,5.2l9.4,16.8c0.1,0.3,0.2,0.5,0.2,0.7c0,0.4-0.1,0.8-0.4,1.1c-0.3,0.3-0.6,0.4-1.1,0.4h-5.8
				c-0.9,0-1.6-0.2-2-0.6c-0.4-0.4-0.7-0.8-0.9-1.2l-8.9-15.8h-9v15.8c0,0.5-0.2,0.9-0.5,1.3s-0.8,0.5-1.3,0.5H120
				c-0.5,0-0.9-0.2-1.3-0.5c-0.4-0.4-0.5-0.8-0.5-1.3V16.6c0-0.5,0.2-0.9,0.5-1.3c0.4-0.4,0.8-0.5,1.3-0.5H137.5z M127.3,36.2h9.9
				c2.6,0,4.6-0.4,6.2-1.4c1.5-0.9,2.3-2.6,2.3-5.2s-0.8-4.2-2.3-5.1c-1.5-0.9-3.6-1.3-6.2-1.3h-9.9V36.2z"/>
			<path class="st0" d="M165.3,62.3c-0.5,0-0.9-0.2-1.3-0.5c-0.4-0.4-0.5-0.8-0.5-1.3V16.6c0-0.5,0.2-0.9,0.5-1.3
				c0.4-0.4,0.8-0.5,1.3-0.5h5.5c0.5,0,0.9,0.2,1.3,0.5c0.4,0.4,0.5,0.8,0.5,1.3v43.9c0,0.5-0.2,0.9-0.5,1.3s-0.8,0.5-1.3,0.5H165.3
				z"/>
		</g>
		<path class="st0" d="M113,60L96.3,17.1c-0.3-0.8-0.6-1.3-1-1.7c-0.4-0.4-0.9-0.6-1.6-0.6h-7.5c-0.7,0-1.3,0.2-1.6,0.6
			c-0.4,0.4-0.7,1-1,1.7L67,60c0,0.1-0.1,0.3-0.1,0.5c0,0.5,0.2,0.9,0.5,1.3c0.4,0.4,0.8,0.5,1.3,0.5h4.9c0.9,0,1.5-0.2,1.9-0.6
			s0.6-0.8,0.7-1.1l6-15.6h15.3l6,15.6c0.1,0.4,0.4,0.7,0.7,1.1c0.4,0.4,1,0.6,1.9,0.6h4.9c0.5,0,0.9-0.2,1.3-0.5
			c0.4-0.4,0.5-0.8,0.5-1.3C113,60.3,113,60.2,113,60z M90,25.2l4.3,11.1h-8.6L90,25.2z"/>
		<path class="st0" d="M225.8,60l-16.6-42.9c-0.3-0.8-0.6-1.3-1-1.7s-0.9-0.6-1.6-0.6h-7.5c-0.7,0-1.3,0.2-1.6,0.6
			c-0.4,0.4-0.7,1-1,1.7L179.9,60c0,0.1-0.1,0.3-0.1,0.5c0,0.5,0.2,0.9,0.5,1.3c0.4,0.4,0.8,0.5,1.3,0.5h4.9c0.9,0,1.5-0.2,1.9-0.6
			s0.6-0.8,0.7-1.1l6-15.6h15.3l6,15.6c0.1,0.4,0.4,0.7,0.7,1.1c0.4,0.4,1,0.6,1.9,0.6h4.9c0.5,0,0.9-0.2,1.3-0.5
			c0.4-0.4,0.5-0.8,0.5-1.3C225.9,60.3,225.9,60.2,225.8,60z M202.9,25.2l4.3,11.1h-8.6L202.9,25.2z"/>
		<g>
			<path class="st0" d="M254.2,36.3l12.9-19.7c0.2-0.2,0.5-0.6,0.9-1.1c0.4-0.5,1.1-0.7,2-0.7h4.6c0.5,0,0.9,0.2,1.3,0.5
				c0.4,0.4,0.5,0.8,0.5,1.3v43.9c0,0.5-0.2,0.9-0.5,1.3c-0.4,0.4-0.8,0.5-1.3,0.5h-5.5c-0.5,0-0.9-0.2-1.3-0.5
				c-0.4-0.4-0.5-0.8-0.5-1.3V31.2l-8.8,12.2c-0.2,0.4-0.5,0.7-1,1.1c-0.4,0.4-0.9,0.6-1.6,0.6h-3.5c-0.6,0-1.2-0.2-1.6-0.6
				c-0.4-0.4-0.7-0.8-1-1.1l-8.8-12.2v29.3c0,0.5-0.2,0.9-0.5,1.3c-0.4,0.4-0.8,0.5-1.3,0.5h-5.5c-0.5,0-0.9-0.2-1.3-0.5
				c-0.4-0.4-0.5-0.8-0.5-1.3V16.6c0-0.5,0.2-0.9,0.5-1.3c0.4-0.4,0.8-0.5,1.3-0.5h4.6c0.9,0,1.6,0.2,2,0.7c0.4,0.5,0.7,0.9,0.9,1.1
				L254.2,36.3z"/>
		</g>
		<g>
			<path class="st0" d="M38.6,36.3l12.9-19.7c0.2-0.2,0.5-0.6,0.9-1.1s1.1-0.7,2-0.7h4.6c0.5,0,0.9,0.2,1.3,0.5
				c0.4,0.4,0.5,0.8,0.5,1.3v43.9c0,0.5-0.2,0.9-0.5,1.3c-0.4,0.4-0.8,0.5-1.3,0.5h-5.5c-0.5,0-0.9-0.2-1.3-0.5
				c-0.4-0.4-0.5-0.8-0.5-1.3V31.2l-8.8,12.2c-0.2,0.4-0.5,0.7-1,1.1C41.5,44.8,41,45,40.4,45h-3.5c-0.6,0-1.2-0.2-1.6-0.6
				c-0.4-0.4-0.7-0.8-1-1.1l-8.8-12.2v29.3c0,0.5-0.2,0.9-0.5,1.3c-0.4,0.4-0.8,0.5-1.3,0.5h-5.5c-0.5,0-0.9-0.2-1.3-0.5
				c-0.4-0.4-0.5-0.8-0.5-1.3V16.6c0-0.5,0.2-0.9,0.5-1.3c0.4-0.4,0.8-0.5,1.3-0.5h4.6c0.9,0,1.6,0.2,2,0.7c0.4,0.5,0.7,0.9,0.9,1.1
				L38.6,36.3z"/>
		</g>
	</g>
</g>
</svg>
