<?xml version="1.0" encoding="utf-8"?>
<!-- Generator: Adobe Illustrator 21.1.0, SVG Export Plug-In . SVG Version: 6.00 Build 0)  -->
<svg version="1.1" id="Calque_1" xmlns="http://www.w3.org/2000/svg" xmlns:xlink="http://www.w3.org/1999/xlink" x="0px" y="0px"
	 viewBox="0 0 289.8 164.2" style="enable-background:new 0 0 289.8 164.2;" xml:space="preserve">
<style type="text/css">
	.st0{fill:#8E374B;}
	.st1{fill:#EE7C5E;}
</style>
<g>
	<g>
		<path class="st0" d="M24.2,134.7c0.2,0,0.4,0.1,0.5,0.2c0.1,0.1,0.2,0.3,0.3,0.6l5.3,13.8c0,0,0,0.1,0,0.2c0,0.2-0.1,0.3-0.2,0.4
			c-0.1,0.1-0.3,0.2-0.4,0.2h-1.6c-0.3,0-0.5-0.1-0.6-0.2c-0.1-0.1-0.2-0.2-0.2-0.4l-0.9-2.4h-6.9l-0.9,2.4c0,0.1-0.1,0.2-0.2,0.4
			c-0.1,0.1-0.3,0.2-0.6,0.2h-1.6c-0.2,0-0.3-0.1-0.4-0.2c-0.1-0.1-0.2-0.3-0.2-0.4c0-0.1,0-0.1,0-0.2l5.3-13.8
			c0.1-0.2,0.2-0.4,0.3-0.6c0.1-0.1,0.3-0.2,0.5-0.2H24.2z M25.4,144.3l-2.4-6.2l-2.4,6.2H25.4z"/>
		<path class="st0" d="M37.4,134.5c1,0,1.8,0.1,2.6,0.4c0.7,0.3,1.4,0.6,1.9,1c0.5,0.4,0.9,0.8,1.1,1.3c0.3,0.5,0.4,0.9,0.4,1.3
			c0,0.2,0,0.3-0.2,0.4c-0.1,0.1-0.3,0.2-0.4,0.2h-1.5c-0.2,0-0.4,0-0.6-0.1s-0.2-0.2-0.3-0.4c-0.2-0.4-0.6-0.7-1-0.9
			c-0.4-0.3-1.1-0.4-2-0.4c-0.4,0-0.7,0-1.1,0.1c-0.3,0.1-0.6,0.2-0.9,0.3c-0.3,0.2-0.5,0.3-0.6,0.6c-0.1,0.2-0.2,0.5-0.2,0.7
			c0,0.3,0.1,0.6,0.2,0.8c0.1,0.2,0.4,0.4,0.7,0.5c0.3,0.2,0.8,0.3,1.3,0.4c0.5,0.1,1.2,0.3,2,0.5c0.9,0.2,1.6,0.4,2.3,0.7
			c0.6,0.3,1.1,0.6,1.6,0.9c0.4,0.4,0.7,0.8,0.9,1.2c0.2,0.5,0.3,1,0.3,1.6c0,0.7-0.1,1.3-0.4,1.8c-0.3,0.6-0.7,1-1.2,1.4
			c-0.5,0.4-1.2,0.7-2,0.9c-0.8,0.2-1.7,0.3-2.6,0.3c-0.8,0-1.6-0.1-2.3-0.3c-0.7-0.2-1.4-0.5-2-0.9c-0.6-0.4-1-0.8-1.4-1.3
			c-0.3-0.5-0.5-1.1-0.6-1.7c0-0.2,0-0.3,0.2-0.4c0.1-0.1,0.3-0.2,0.4-0.2h1.5c0.2,0,0.4,0,0.6,0.1s0.2,0.2,0.3,0.4
			c0.1,0.2,0.2,0.4,0.4,0.6c0.1,0.2,0.3,0.4,0.6,0.5c0.2,0.1,0.6,0.3,0.9,0.4c0.4,0.1,0.8,0.1,1.4,0.1c0.4,0,0.9,0,1.3-0.1
			c0.4-0.1,0.8-0.2,1.1-0.3s0.6-0.3,0.7-0.6c0.2-0.2,0.3-0.5,0.3-0.8c0-0.3-0.1-0.6-0.3-0.8c-0.2-0.2-0.5-0.4-0.9-0.5
			c-0.4-0.1-0.9-0.3-1.5-0.4c-0.6-0.1-1.3-0.3-2.1-0.5c-0.7-0.2-1.4-0.4-1.9-0.6c-0.5-0.2-1-0.5-1.3-0.9c-0.4-0.3-0.6-0.8-0.8-1.2
			c-0.2-0.5-0.3-1-0.3-1.7s0.1-1.3,0.4-1.8c0.3-0.6,0.7-1,1.2-1.4c0.5-0.4,1.1-0.7,1.8-0.9C35.8,134.6,36.6,134.5,37.4,134.5z"/>
		<path class="st0" d="M46.9,150c-0.2,0-0.3-0.1-0.4-0.2c-0.1-0.1-0.2-0.3-0.2-0.4v-14.1c0-0.2,0.1-0.3,0.2-0.4
			c0.1-0.1,0.3-0.2,0.4-0.2h6.4c0.9,0,1.7,0.1,2.3,0.4c0.6,0.3,1.1,0.6,1.5,1.1c0.4,0.4,0.7,0.9,0.8,1.4s0.2,1,0.2,1.4
			c0,0.4-0.1,0.8-0.2,1.2c-0.1,0.3-0.3,0.6-0.4,0.9c-0.2,0.2-0.3,0.4-0.5,0.6c-0.2,0.2-0.3,0.3-0.4,0.3c0.4,0.3,0.9,0.7,1.2,1.3
			c0.4,0.6,0.6,1.3,0.6,2.1c0,0.6-0.1,1.1-0.3,1.6c-0.2,0.5-0.5,1-0.9,1.5c-0.4,0.4-0.9,0.8-1.5,1.1c-0.6,0.3-1.3,0.4-2,0.4H46.9z
			 M55.3,139.1c0-0.6-0.2-1-0.5-1.3c-0.3-0.3-0.9-0.4-1.7-0.4h-3.9v3.4h3.9c0.8,0,1.3-0.1,1.7-0.4C55.1,140.1,55.3,139.7,55.3,139.1
			z M49.2,147.3h4c0.8,0,1.4-0.2,1.8-0.5c0.4-0.3,0.6-0.8,0.6-1.3s-0.2-1-0.6-1.4s-1-0.5-1.7-0.5h-4V147.3z"/>
		<path class="st0" d="M71.4,147.3c0.2,0,0.3,0.1,0.4,0.2c0.1,0.1,0.2,0.3,0.2,0.4v1.5c0,0.2-0.1,0.3-0.2,0.4
			c-0.1,0.1-0.3,0.2-0.4,0.2h-9.6c-0.2,0-0.3-0.1-0.4-0.2c-0.1-0.1-0.2-0.3-0.2-0.4v-14.1c0-0.2,0.1-0.3,0.2-0.4
			c0.1-0.1,0.3-0.2,0.4-0.2h1.8c0.2,0,0.3,0.1,0.4,0.2c0.1,0.1,0.2,0.3,0.2,0.4v11.9H71.4z"/>
		<path class="st0" d="M83.6,141.3c-0.9,0-1.5,0.2-1.9,0.6c-0.4,0.4-0.6,1-0.6,1.9v5.7c0,0.2-0.1,0.3-0.2,0.4
			c-0.1,0.1-0.2,0.2-0.4,0.2h-1.7c-0.2,0-0.3-0.1-0.4-0.2c-0.1-0.1-0.2-0.3-0.2-0.4v-10.2c0-0.2,0.1-0.3,0.2-0.4
			c0.1-0.1,0.3-0.2,0.4-0.2h1.7c0.2,0,0.3,0.1,0.4,0.2c0.1,0.1,0.2,0.3,0.2,0.4v0.5c0.4-0.3,0.8-0.6,1.2-0.8c0.4-0.2,1-0.3,1.7-0.3
			h1c0.2,0,0.3,0.1,0.4,0.2c0.1,0.1,0.2,0.3,0.2,0.4v1.4c0,0.2-0.1,0.3-0.2,0.4c-0.1,0.1-0.3,0.2-0.4,0.2H83.6z"/>
		<path class="st0" d="M86.7,144.3c0-0.8,0.1-1.6,0.4-2.3c0.2-0.7,0.6-1.3,1.1-1.9c0.5-0.5,1-0.9,1.7-1.3c0.7-0.3,1.4-0.5,2.2-0.5
			c0.8,0,1.6,0.1,2.2,0.4c0.7,0.3,1.2,0.7,1.7,1.2c0.5,0.5,0.8,1.1,1.1,1.8c0.2,0.7,0.4,1.4,0.4,2.1v1c0,0.2-0.1,0.3-0.2,0.4
			c-0.1,0.1-0.3,0.2-0.4,0.2h-7.3c0,0.3,0.1,0.6,0.2,0.9c0.1,0.3,0.3,0.5,0.6,0.6s0.5,0.3,0.8,0.4c0.3,0.1,0.6,0.1,0.9,0.1
			c0.5,0,0.8,0,1.1-0.1c0.3-0.1,0.5-0.2,0.7-0.4c0.2-0.1,0.3-0.2,0.4-0.2c0.1,0,0.2-0.1,0.4-0.1h1.7c0.2,0,0.3,0.1,0.4,0.2
			c0.1,0.1,0.2,0.3,0.2,0.4c0,0.2-0.1,0.5-0.3,0.8s-0.5,0.6-0.9,0.9c-0.4,0.3-0.9,0.6-1.6,0.8c-0.6,0.2-1.3,0.3-2.1,0.3
			c-0.8,0-1.6-0.1-2.2-0.4c-0.7-0.3-1.2-0.7-1.7-1.2c-0.5-0.5-0.8-1.1-1.1-1.9C86.8,146,86.7,145.2,86.7,144.3z M92,141.1
			c-0.4,0-0.8,0.1-1.1,0.2c-0.3,0.1-0.5,0.3-0.7,0.5c-0.2,0.2-0.4,0.4-0.5,0.7c-0.1,0.2-0.2,0.5-0.2,0.7h4.9c0-0.2-0.1-0.4-0.2-0.7
			c-0.1-0.2-0.2-0.5-0.4-0.7c-0.2-0.2-0.4-0.4-0.7-0.5C92.8,141.1,92.5,141.1,92,141.1z"/>
		<path class="st0" d="M102.6,149.4c0,0.2-0.1,0.3-0.2,0.4c-0.1,0.1-0.3,0.2-0.4,0.2h-1.7c-0.2,0-0.3-0.1-0.4-0.2
			c-0.1-0.1-0.2-0.3-0.2-0.4v-14.3c0-0.2,0.1-0.3,0.2-0.4c0.1-0.1,0.3-0.2,0.4-0.2h1.7c0.2,0,0.3,0.1,0.4,0.2
			c0.1,0.1,0.2,0.3,0.2,0.4V149.4z"/>
		<path class="st0" d="M105.6,141.4c0.1-0.3,0.2-0.6,0.4-1s0.5-0.7,0.9-1c0.4-0.3,0.9-0.6,1.4-0.8c0.6-0.2,1.2-0.3,2-0.3
			s1.4,0.1,2,0.3c0.6,0.2,1.1,0.5,1.5,0.9c0.4,0.4,0.8,0.9,1,1.4c0.2,0.6,0.3,1.2,0.3,2v6.4c0,0.2-0.1,0.3-0.2,0.4
			c-0.1,0.1-0.3,0.2-0.4,0.2h-1.7c-0.2,0-0.3-0.1-0.4-0.2c-0.1-0.1-0.2-0.3-0.2-0.4v-0.7c-0.3,0.4-0.7,0.8-1.3,1.1
			c-0.6,0.3-1.3,0.4-2.2,0.4c-0.6,0-1.2-0.1-1.7-0.2c-0.5-0.2-0.9-0.4-1.2-0.7c-0.3-0.3-0.6-0.7-0.8-1.1c-0.2-0.4-0.3-0.9-0.3-1.4
			c0-1,0.4-1.8,1.1-2.4c0.7-0.6,1.7-1,2.9-1.2l3.6-0.6c0-0.6-0.2-1-0.6-1.3c-0.4-0.2-0.9-0.4-1.5-0.4c-0.4,0-0.6,0.1-0.9,0.2
			c-0.2,0.1-0.4,0.2-0.6,0.4c-0.1,0.1-0.3,0.2-0.4,0.2c-0.1,0-0.2,0.1-0.4,0.1h-2c-0.1,0-0.3,0-0.4-0.1
			C105.6,141.7,105.6,141.6,105.6,141.4z M109.2,147.6c0.5,0,0.9-0.1,1.3-0.2c0.4-0.1,0.7-0.3,1-0.6c0.3-0.2,0.5-0.5,0.6-0.8
			c0.1-0.3,0.2-0.6,0.2-0.9v-0.2l-3,0.5c-0.6,0.1-1,0.2-1.3,0.4c-0.3,0.2-0.4,0.5-0.4,0.8c0,0.3,0.2,0.5,0.5,0.7
			C108.4,147.5,108.8,147.6,109.2,147.6z"/>
		<path class="st0" d="M121.8,145.9c0,0.4,0.1,0.8,0.4,1.1c0.2,0.3,0.7,0.4,1.3,0.4h1.3c0.2,0,0.3,0.1,0.4,0.2
			c0.1,0.1,0.2,0.3,0.2,0.4v1.4c0,0.2-0.1,0.3-0.2,0.4c-0.1,0.1-0.3,0.2-0.4,0.2h-1.6c-1.4,0-2.4-0.3-3.1-1c-0.7-0.7-1.1-1.7-1.1-3
			v-4.7h-1.4c-0.2,0-0.3-0.1-0.4-0.2c-0.1-0.1-0.2-0.3-0.2-0.4v-1.4c0-0.2,0.1-0.3,0.2-0.4c0.1-0.1,0.3-0.2,0.4-0.2h1.4v-3.6
			c0-0.2,0.1-0.3,0.2-0.4c0.1-0.1,0.3-0.2,0.4-0.2h1.7c0.2,0,0.3,0.1,0.4,0.2c0.1,0.1,0.2,0.3,0.2,0.4v3.6h2.8
			c0.2,0,0.3,0.1,0.4,0.2c0.1,0.1,0.2,0.3,0.2,0.4v1.4c0,0.2-0.1,0.3-0.2,0.4c-0.1,0.1-0.3,0.2-0.4,0.2h-2.8V145.9z"/>
		<path class="st0" d="M129.9,134.5c0.2,0,0.3,0.1,0.4,0.2s0.2,0.3,0.2,0.4v1.7c0,0.2-0.1,0.3-0.2,0.4s-0.3,0.2-0.4,0.2H128
			c-0.2,0-0.3-0.1-0.4-0.2c-0.1-0.1-0.2-0.3-0.2-0.4v-1.7c0-0.2,0.1-0.3,0.2-0.4c0.1-0.1,0.3-0.2,0.4-0.2H129.9z M130.3,149.4
			c0,0.2-0.1,0.3-0.2,0.4c-0.1,0.1-0.3,0.2-0.4,0.2h-1.7c-0.2,0-0.3-0.1-0.4-0.2c-0.1-0.1-0.2-0.3-0.2-0.4v-10.2
			c0-0.2,0.1-0.3,0.2-0.4c0.1-0.1,0.3-0.2,0.4-0.2h1.7c0.2,0,0.3,0.1,0.4,0.2c0.1,0.1,0.2,0.3,0.2,0.4V149.4z"/>
		<path class="st0" d="M138.3,138.4c0.8,0,1.5,0.1,2.2,0.4c0.6,0.2,1.2,0.6,1.7,1c0.5,0.4,0.9,0.9,1.1,1.5c0.3,0.6,0.4,1.2,0.5,1.9
			c0,0.1,0,0.3,0,0.5c0,0.2,0,0.4,0,0.6s0,0.4,0,0.6c0,0.2,0,0.4,0,0.5c-0.1,0.7-0.2,1.3-0.5,1.9c-0.3,0.6-0.7,1.1-1.1,1.5
			c-0.5,0.4-1,0.8-1.7,1c-0.6,0.2-1.4,0.4-2.2,0.4c-0.8,0-1.5-0.1-2.2-0.4c-0.7-0.2-1.2-0.6-1.7-1c-0.5-0.4-0.8-0.9-1.1-1.5
			c-0.3-0.6-0.4-1.2-0.5-1.9c0-0.1,0-0.3,0-0.5c0-0.2,0-0.4,0-0.6s0-0.4,0-0.6c0-0.2,0-0.4,0-0.5c0-0.7,0.2-1.3,0.5-1.9
			c0.3-0.6,0.7-1.1,1.1-1.5c0.5-0.4,1-0.8,1.7-1C136.8,138.6,137.5,138.4,138.3,138.4z M141,143.3c0-0.5-0.1-0.8-0.3-1.1
			c-0.2-0.3-0.4-0.5-0.6-0.7c-0.2-0.2-0.5-0.3-0.8-0.4c-0.3-0.1-0.6-0.1-0.9-0.1c-0.3,0-0.6,0-0.9,0.1c-0.3,0.1-0.6,0.2-0.8,0.4
			c-0.2,0.2-0.5,0.4-0.6,0.7c-0.2,0.3-0.3,0.7-0.3,1.1c0,0.1,0,0.3,0,0.4c0,0.2,0,0.4,0,0.5c0,0.2,0,0.4,0,0.6c0,0.2,0,0.3,0,0.4
			c0,0.4,0.2,0.8,0.3,1.1c0.2,0.3,0.4,0.5,0.6,0.7c0.2,0.2,0.5,0.3,0.8,0.4c0.3,0.1,0.6,0.1,0.9,0.1c0.3,0,0.6,0,0.9-0.1
			c0.3-0.1,0.6-0.2,0.8-0.4c0.2-0.2,0.4-0.4,0.6-0.7c0.2-0.3,0.3-0.7,0.3-1.1c0-0.1,0-0.2,0-0.4c0-0.2,0-0.4,0-0.6
			c0-0.2,0-0.4,0-0.5C141,143.6,141,143.5,141,143.3z"/>
		<path class="st0" d="M157,149.4c0,0.2-0.1,0.3-0.2,0.4c-0.1,0.1-0.3,0.2-0.4,0.2h-1.7c-0.2,0-0.3-0.1-0.4-0.2
			c-0.1-0.1-0.2-0.3-0.2-0.4v-5.5c0-0.9-0.2-1.6-0.6-2.1c-0.4-0.5-1-0.8-1.9-0.8c-0.8,0-1.4,0.3-1.8,0.8c-0.4,0.5-0.7,1.2-0.7,2.1
			v5.5c0,0.2-0.1,0.3-0.2,0.4c-0.1,0.1-0.2,0.2-0.4,0.2h-1.7c-0.2,0-0.3-0.1-0.4-0.2c-0.1-0.1-0.2-0.3-0.2-0.4v-10.2
			c0-0.2,0.1-0.3,0.2-0.4c0.1-0.1,0.3-0.2,0.4-0.2h1.7c0.2,0,0.3,0.1,0.4,0.2c0.1,0.1,0.2,0.3,0.2,0.4v0.5c0.4-0.4,0.8-0.7,1.3-0.9
			c0.5-0.2,1.1-0.4,1.8-0.4c0.9,0,1.6,0.1,2.2,0.4c0.6,0.3,1.1,0.6,1.4,1.1c0.4,0.5,0.6,1,0.8,1.6c0.2,0.6,0.2,1.3,0.2,2V149.4z"/>
		<path class="st0" d="M166,146.7c0-0.2,0-0.3-0.2-0.4c-0.1-0.1-0.3-0.2-0.5-0.3c-0.3-0.1-0.6-0.2-1-0.3c-0.4-0.1-1-0.2-1.6-0.3
			c-0.6-0.1-1.2-0.3-1.6-0.5c-0.4-0.2-0.8-0.5-1-0.8c-0.3-0.3-0.4-0.6-0.5-1c-0.1-0.4-0.2-0.8-0.2-1.2s0.1-0.9,0.3-1.3
			c0.2-0.4,0.5-0.8,0.9-1.1c0.4-0.3,0.9-0.6,1.4-0.8c0.6-0.2,1.2-0.3,1.9-0.3c0.7,0,1.3,0.1,1.9,0.2c0.6,0.2,1,0.4,1.4,0.6
			c0.4,0.3,0.7,0.6,0.9,0.9c0.2,0.3,0.3,0.7,0.4,1c0,0.2,0,0.3-0.2,0.4c-0.1,0.1-0.3,0.2-0.4,0.2h-1.7c-0.2,0-0.4,0-0.5-0.1
			c-0.1-0.1-0.2-0.2-0.4-0.3c-0.1-0.1-0.3-0.2-0.5-0.3c-0.2-0.1-0.5-0.1-1-0.1c-0.4,0-0.8,0.1-1.2,0.2c-0.3,0.1-0.5,0.4-0.5,0.7
			c0,0.2,0,0.3,0.1,0.4c0.1,0.1,0.2,0.2,0.5,0.3c0.2,0.1,0.5,0.2,0.9,0.3c0.4,0.1,0.9,0.2,1.6,0.3c1.3,0.3,2.2,0.7,2.7,1.3
			c0.5,0.6,0.8,1.3,0.8,2.2c0,0.4-0.1,0.9-0.3,1.3c-0.2,0.4-0.5,0.8-0.9,1.1c-0.4,0.3-0.9,0.6-1.5,0.8c-0.6,0.2-1.3,0.3-2,0.3
			c-0.8,0-1.5-0.1-2-0.3c-0.6-0.2-1.1-0.4-1.5-0.7c-0.4-0.3-0.7-0.6-0.9-1c-0.2-0.4-0.3-0.7-0.3-1.1c0-0.2,0-0.3,0.2-0.4
			c0.1-0.1,0.3-0.2,0.4-0.2h1.7c0.2,0,0.4,0.1,0.5,0.2c0.1,0.1,0.2,0.2,0.4,0.3c0.1,0.1,0.3,0.2,0.6,0.3c0.2,0.1,0.6,0.2,1.1,0.2
			c0.2,0,0.4,0,0.7,0c0.2,0,0.4-0.1,0.6-0.1c0.2-0.1,0.4-0.2,0.5-0.3S166,146.9,166,146.7z"/>
		<path class="st0" d="M186.3,150c-0.2,0-0.4-0.1-0.6-0.2c-0.1-0.1-0.2-0.2-0.3-0.3l-6.1-9.1v9c0,0.2-0.1,0.3-0.2,0.4
			c-0.1,0.1-0.3,0.2-0.4,0.2H177c-0.2,0-0.3-0.1-0.4-0.2c-0.1-0.1-0.2-0.3-0.2-0.4v-14.1c0-0.2,0.1-0.3,0.2-0.4
			c0.1-0.1,0.3-0.2,0.4-0.2h1.5c0.2,0,0.4,0.1,0.6,0.2c0.1,0.1,0.2,0.2,0.3,0.3l6.1,9.1v-9c0-0.2,0.1-0.3,0.2-0.4
			c0.1-0.1,0.3-0.2,0.4-0.2h1.8c0.2,0,0.3,0.1,0.4,0.2c0.1,0.1,0.2,0.3,0.2,0.4v14.1c0,0.2-0.1,0.3-0.2,0.4
			c-0.1,0.1-0.3,0.2-0.4,0.2H186.3z"/>
		<path class="st0" d="M196.6,138.4c0.8,0,1.5,0.1,2.2,0.4c0.7,0.2,1.2,0.6,1.7,1c0.5,0.4,0.9,0.9,1.1,1.5c0.3,0.6,0.4,1.2,0.5,1.9
			c0,0.1,0,0.3,0,0.5c0,0.2,0,0.4,0,0.6s0,0.4,0,0.6c0,0.2,0,0.4,0,0.5c-0.1,0.7-0.2,1.3-0.5,1.9c-0.3,0.6-0.7,1.1-1.1,1.5
			c-0.5,0.4-1,0.8-1.7,1c-0.6,0.2-1.4,0.4-2.2,0.4c-0.8,0-1.5-0.1-2.2-0.4c-0.6-0.2-1.2-0.6-1.7-1c-0.5-0.4-0.8-0.9-1.1-1.5
			c-0.3-0.6-0.4-1.2-0.5-1.9c0-0.1,0-0.3,0-0.5c0-0.2,0-0.4,0-0.6s0-0.4,0-0.6c0-0.2,0-0.4,0-0.5c0-0.7,0.2-1.3,0.5-1.9
			c0.3-0.6,0.7-1.1,1.1-1.5c0.5-0.4,1-0.8,1.7-1C195,138.6,195.8,138.4,196.6,138.4z M199.2,143.3c0-0.5-0.2-0.8-0.3-1.1
			c-0.2-0.3-0.4-0.5-0.6-0.7c-0.2-0.2-0.5-0.3-0.8-0.4c-0.3-0.1-0.6-0.1-0.9-0.1c-0.3,0-0.6,0-0.9,0.1c-0.3,0.1-0.6,0.2-0.8,0.4
			c-0.2,0.2-0.5,0.4-0.6,0.7c-0.2,0.3-0.3,0.7-0.3,1.1c0,0.1,0,0.3,0,0.4c0,0.2,0,0.4,0,0.5c0,0.2,0,0.4,0,0.6c0,0.2,0,0.3,0,0.4
			c0,0.4,0.1,0.8,0.3,1.1c0.2,0.3,0.4,0.5,0.6,0.7c0.2,0.2,0.5,0.3,0.8,0.4c0.3,0.1,0.6,0.1,0.9,0.1c0.3,0,0.6,0,0.9-0.1
			c0.3-0.1,0.6-0.2,0.8-0.4c0.2-0.2,0.5-0.4,0.6-0.7c0.2-0.3,0.3-0.7,0.3-1.1c0-0.1,0-0.2,0-0.4c0-0.2,0-0.4,0-0.6
			c0-0.2,0-0.4,0-0.5C199.2,143.6,199.2,143.5,199.2,143.3z"/>
		<path class="st0" d="M209.8,141.3c-0.9,0-1.5,0.2-1.9,0.6c-0.4,0.4-0.6,1-0.6,1.9v5.7c0,0.2-0.1,0.3-0.2,0.4
			c-0.1,0.1-0.3,0.2-0.4,0.2h-1.7c-0.2,0-0.3-0.1-0.4-0.2c-0.1-0.1-0.2-0.3-0.2-0.4v-10.2c0-0.2,0.1-0.3,0.2-0.4
			c0.1-0.1,0.3-0.2,0.4-0.2h1.7c0.2,0,0.3,0.1,0.4,0.2c0.1,0.1,0.2,0.3,0.2,0.4v0.5c0.4-0.3,0.8-0.6,1.2-0.8c0.4-0.2,1-0.3,1.7-0.3
			h1c0.2,0,0.3,0.1,0.4,0.2c0.1,0.1,0.2,0.3,0.2,0.4v1.4c0,0.2-0.1,0.3-0.2,0.4c-0.1,0.1-0.2,0.2-0.4,0.2H209.8z"/>
		<path class="st0" d="M217.8,138.4c0.4,0,0.9,0,1.2,0.1c0.4,0.1,0.7,0.2,0.9,0.3c0.3,0.1,0.5,0.3,0.7,0.4c0.2,0.2,0.3,0.3,0.5,0.4
			v-4.6c0-0.2,0.1-0.3,0.2-0.4c0.1-0.1,0.3-0.2,0.4-0.2h1.7c0.2,0,0.3,0.1,0.4,0.2c0.1,0.1,0.2,0.3,0.2,0.4v14.3
			c0,0.2-0.1,0.3-0.2,0.4c-0.1,0.1-0.3,0.2-0.4,0.2h-1.7c-0.2,0-0.3-0.1-0.4-0.2c-0.1-0.1-0.2-0.3-0.2-0.4v-0.5
			c-0.1,0.1-0.3,0.3-0.5,0.4c-0.2,0.2-0.4,0.3-0.7,0.4c-0.3,0.1-0.6,0.2-0.9,0.3s-0.8,0.1-1.2,0.1c-0.7,0-1.4-0.1-2-0.4
			c-0.6-0.3-1.1-0.7-1.5-1.1c-0.4-0.5-0.7-1-1-1.6s-0.4-1.3-0.4-1.9c0-0.2,0-0.5,0-0.8c0-0.3,0-0.5,0-0.8c0-0.7,0.2-1.3,0.4-1.9
			c0.2-0.6,0.6-1.2,1-1.6c0.4-0.5,0.9-0.9,1.5-1.1C216.5,138.6,217.1,138.4,217.8,138.4z M215.8,143.7c0,0.4,0,0.8,0,1.2
			c0.1,0.9,0.4,1.6,0.9,2c0.5,0.4,1.1,0.6,1.8,0.6c0.7,0,1.3-0.2,1.8-0.6c0.5-0.4,0.8-1,0.8-1.8c0-0.2,0-0.5,0-0.8
			c0-0.3,0-0.6,0-0.8c-0.1-0.8-0.4-1.4-0.8-1.8c-0.5-0.4-1.1-0.7-1.8-0.7c-0.7,0-1.3,0.2-1.8,0.6
			C216.2,142.1,215.9,142.8,215.8,143.7z"/>
		<path class="st0" d="M227.4,144.8c-0.2,0-0.3-0.1-0.4-0.2c-0.1-0.1-0.2-0.3-0.2-0.4v-1.4c0-0.2,0.1-0.3,0.2-0.4
			c0.1-0.1,0.3-0.2,0.4-0.2h6.7c0.2,0,0.3,0.1,0.4,0.2c0.1,0.1,0.2,0.3,0.2,0.4v1.4c0,0.2-0.1,0.3-0.2,0.4c-0.1,0.1-0.3,0.2-0.4,0.2
			H227.4z"/>
		<path class="st0" d="M242.8,134.5c1,0,1.8,0.1,2.6,0.4c0.7,0.3,1.4,0.6,1.9,1c0.5,0.4,0.9,0.8,1.1,1.3c0.3,0.5,0.4,0.9,0.4,1.3
			c0,0.2,0,0.3-0.2,0.4c-0.1,0.1-0.3,0.2-0.4,0.2h-1.5c-0.2,0-0.4,0-0.6-0.1s-0.2-0.2-0.3-0.4c-0.2-0.4-0.6-0.7-1-0.9
			c-0.4-0.3-1.1-0.4-2-0.4c-0.4,0-0.7,0-1.1,0.1c-0.3,0.1-0.6,0.2-0.9,0.3c-0.3,0.2-0.5,0.3-0.6,0.6c-0.1,0.2-0.2,0.5-0.2,0.7
			c0,0.3,0.1,0.6,0.2,0.8c0.1,0.2,0.4,0.4,0.7,0.5c0.3,0.2,0.8,0.3,1.3,0.4c0.5,0.1,1.2,0.3,2,0.5c0.9,0.2,1.6,0.4,2.3,0.7
			c0.6,0.3,1.1,0.6,1.6,0.9c0.4,0.4,0.7,0.8,0.9,1.2c0.2,0.5,0.3,1,0.3,1.6c0,0.7-0.1,1.3-0.4,1.8c-0.3,0.6-0.7,1-1.2,1.4
			c-0.5,0.4-1.2,0.7-2,0.9c-0.8,0.2-1.7,0.3-2.6,0.3c-0.8,0-1.6-0.1-2.3-0.3c-0.7-0.2-1.4-0.5-2-0.9c-0.6-0.4-1-0.8-1.4-1.3
			c-0.3-0.5-0.5-1.1-0.6-1.7c0-0.2,0-0.3,0.2-0.4c0.1-0.1,0.3-0.2,0.4-0.2h1.5c0.2,0,0.4,0,0.6,0.1s0.2,0.2,0.3,0.4
			c0.1,0.2,0.2,0.4,0.4,0.6c0.1,0.2,0.3,0.4,0.6,0.5c0.2,0.1,0.6,0.3,0.9,0.4c0.4,0.1,0.8,0.1,1.4,0.1c0.4,0,0.9,0,1.3-0.1
			c0.4-0.1,0.8-0.2,1.1-0.3c0.3-0.2,0.6-0.3,0.7-0.6c0.2-0.2,0.3-0.5,0.3-0.8c0-0.3-0.1-0.6-0.3-0.8c-0.2-0.2-0.5-0.4-0.9-0.5
			c-0.4-0.1-0.9-0.3-1.5-0.4c-0.6-0.1-1.3-0.3-2.1-0.5c-0.7-0.2-1.4-0.4-1.9-0.6c-0.5-0.2-1-0.5-1.3-0.9c-0.4-0.3-0.6-0.8-0.8-1.2
			c-0.2-0.5-0.3-1-0.3-1.7s0.1-1.3,0.4-1.8c0.3-0.6,0.7-1,1.2-1.4c0.5-0.4,1.1-0.7,1.8-0.9C241.2,134.6,241.9,134.5,242.8,134.5z"/>
		<path class="st0" d="M251.4,139.2c0-0.2,0.1-0.3,0.2-0.4c0.1-0.1,0.3-0.2,0.4-0.2h1.7c0.2,0,0.3,0.1,0.4,0.2
			c0.1,0.1,0.2,0.3,0.2,0.4v5.5c0,0.9,0.2,1.6,0.6,2.1c0.4,0.5,1,0.8,1.8,0.8c0.8,0,1.4-0.3,1.8-0.8c0.4-0.5,0.6-1.2,0.6-2.1v-5.5
			c0-0.2,0.1-0.3,0.2-0.4c0.1-0.1,0.3-0.2,0.4-0.2h1.7c0.2,0,0.3,0.1,0.4,0.2c0.1,0.1,0.2,0.3,0.2,0.4v10.2c0,0.2-0.1,0.3-0.2,0.4
			c-0.1,0.1-0.3,0.2-0.4,0.2h-1.7c-0.2,0-0.3-0.1-0.4-0.2c-0.1-0.1-0.2-0.3-0.2-0.4v-0.5c-0.3,0.3-0.7,0.6-1.2,0.9
			c-0.5,0.3-1.1,0.4-1.8,0.4c-0.9,0-1.6-0.1-2.2-0.4c-0.6-0.3-1-0.6-1.4-1.1c-0.4-0.5-0.6-1-0.7-1.6c-0.1-0.6-0.2-1.3-0.2-2V139.2z"
			/>
		<path class="st0" d="M269.1,138.4c0.4,0,0.9,0,1.2,0.1c0.4,0.1,0.7,0.2,0.9,0.3c0.3,0.1,0.5,0.3,0.7,0.4c0.2,0.2,0.3,0.3,0.5,0.4
			v-4.6c0-0.2,0.1-0.3,0.2-0.4c0.1-0.1,0.3-0.2,0.4-0.2h1.7c0.2,0,0.3,0.1,0.4,0.2c0.1,0.1,0.2,0.3,0.2,0.4v14.3
			c0,0.2-0.1,0.3-0.2,0.4c-0.1,0.1-0.3,0.2-0.4,0.2H273c-0.2,0-0.3-0.1-0.4-0.2c-0.1-0.1-0.2-0.3-0.2-0.4v-0.5
			c-0.1,0.1-0.3,0.3-0.5,0.4c-0.2,0.2-0.4,0.3-0.7,0.4c-0.3,0.1-0.6,0.2-0.9,0.3c-0.4,0.1-0.8,0.1-1.2,0.1c-0.7,0-1.4-0.1-2-0.4
			c-0.6-0.3-1.1-0.7-1.5-1.1c-0.4-0.5-0.7-1-1-1.6c-0.2-0.6-0.4-1.3-0.4-1.9c0-0.2,0-0.5,0-0.8c0-0.3,0-0.5,0-0.8
			c0-0.7,0.2-1.3,0.4-1.9c0.2-0.6,0.6-1.2,1-1.6c0.4-0.5,0.9-0.9,1.5-1.1C267.8,138.6,268.4,138.4,269.1,138.4z M267.1,143.7
			c0,0.4,0,0.8,0,1.2c0.1,0.9,0.4,1.6,0.9,2c0.5,0.4,1.1,0.6,1.8,0.6c0.7,0,1.3-0.2,1.8-0.6c0.5-0.4,0.8-1,0.8-1.8
			c0-0.2,0-0.5,0-0.8c0-0.3,0-0.6,0-0.8c-0.1-0.8-0.4-1.4-0.8-1.8c-0.5-0.4-1.1-0.7-1.8-0.7c-0.7,0-1.3,0.2-1.8,0.6
			C267.5,142.1,267.2,142.8,267.1,143.7z"/>
	</g>
	<g>
		<path class="st1" d="M15.3,98.5c0-0.5,0.2-0.9,0.5-1.3c0.4-0.4,0.8-0.5,1.3-0.5h70.2c0.5,0,0.9,0.2,1.3,0.5
			c0.4,0.4,0.5,0.8,0.5,1.3v5c0,0.5-0.2,0.9-0.5,1.3s-0.8,0.5-1.3,0.5H17.1c-0.5,0-0.9-0.2-1.3-0.5c-0.4-0.4-0.5-0.8-0.5-1.3V98.5z"
			/>
	</g>
	<g>
		<g>
			<path class="st0" d="M143.1,75.1c0.5,0,0.9,0.2,1.3,0.5s0.5,0.8,0.5,1.3v4.8c0,0.5-0.2,0.9-0.5,1.3s-0.8,0.5-1.3,0.5h-21.7v13.2
				h20.3c0.5,0,0.9,0.2,1.3,0.5c0.4,0.4,0.5,0.8,0.5,1.3v4.8c0,0.5-0.2,0.9-0.5,1.3c-0.4,0.4-0.8,0.5-1.3,0.5h-20.3v15.6
				c0,0.5-0.2,0.9-0.5,1.3c-0.4,0.4-0.8,0.5-1.3,0.5h-5.5c-0.5,0-0.9-0.2-1.3-0.5c-0.4-0.4-0.5-0.8-0.5-1.3V77
				c0-0.5,0.2-0.9,0.5-1.3c0.4-0.4,0.8-0.5,1.3-0.5H143.1z"/>
			<path class="st0" d="M211.3,74.5c3,0,5.7,0.4,8,1.2c2.3,0.8,4.2,1.8,5.8,3.1c1.5,1.2,2.7,2.6,3.5,4c0.8,1.5,1.2,2.9,1.3,4.2
				c0,0.5-0.1,1-0.5,1.3c-0.4,0.3-0.8,0.5-1.3,0.5h-4.8c-0.8,0-1.3-0.1-1.7-0.4c-0.4-0.3-0.7-0.7-1.1-1.2c-0.7-1.1-1.7-2.1-3.1-3
				c-1.4-0.8-3.4-1.3-6.1-1.3c-1.2,0-2.3,0.1-3.4,0.4c-1.1,0.2-2,0.6-2.8,1.1c-0.8,0.5-1.4,1.1-1.9,1.7c-0.5,0.7-0.7,1.4-0.7,2.3
				c0,1,0.2,1.9,0.6,2.5c0.4,0.7,1.2,1.2,2.2,1.7c1,0.5,2.4,0.9,4,1.3c1.7,0.4,3.8,0.9,6.2,1.4c2.7,0.6,5.1,1.3,7,2.1
				c2,0.8,3.6,1.7,4.8,2.9c1.2,1.1,2.2,2.4,2.8,3.8c0.6,1.4,0.9,3.1,0.9,5c0,2-0.5,3.9-1.4,5.7c-0.9,1.7-2.2,3.2-3.9,4.5
				c-1.7,1.2-3.7,2.2-6.2,3c-2.4,0.7-5.2,1.1-8.2,1.1c-2.5,0-5-0.3-7.3-0.9c-2.3-0.6-4.4-1.5-6.1-2.6c-1.8-1.2-3.2-2.5-4.3-4.2
				c-1.1-1.6-1.7-3.4-1.8-5.4c0-0.5,0.1-1,0.5-1.3c0.4-0.3,0.8-0.5,1.3-0.5h4.8c0.8,0,1.4,0.1,1.8,0.4c0.4,0.3,0.7,0.7,1,1.2
				c0.3,0.6,0.7,1.2,1.2,1.8c0.5,0.6,1.1,1.1,1.8,1.6c0.8,0.5,1.7,0.8,2.9,1.1c1.2,0.3,2.6,0.4,4.3,0.4c1.4,0,2.7-0.1,3.9-0.3
				c1.3-0.2,2.4-0.5,3.3-1c1-0.5,1.7-1.1,2.3-1.8s0.9-1.6,0.9-2.6c0-1-0.3-1.8-1-2.4c-0.6-0.6-1.6-1.2-2.9-1.6
				c-1.3-0.5-2.9-0.9-4.8-1.3c-1.9-0.4-4.1-0.9-6.6-1.6c-2.3-0.5-4.2-1.2-5.9-1.9c-1.7-0.7-3.1-1.7-4.2-2.8
				c-1.1-1.1-1.9-2.4-2.5-3.8c-0.5-1.5-0.8-3.2-0.8-5.3c0-2,0.4-3.9,1.4-5.6c0.9-1.7,2.1-3.2,3.7-4.4c1.6-1.2,3.5-2.2,5.7-2.9
				C206.4,74.8,208.8,74.5,211.3,74.5z"/>
			<path class="st0" d="M235.4,92.9c0.1-2.5,0.6-4.9,1.5-7.2c0.8-2.2,2.1-4.2,3.7-5.8c1.6-1.7,3.7-3,6.1-3.9c2.4-1,5.3-1.5,8.7-1.5
				c3.3,0,6.2,0.5,8.6,1.4c2.4,1,4.5,2.3,6.1,3.9s2.9,3.6,3.7,5.8c0.9,2.2,1.4,4.6,1.5,7.2c0,0.9,0.1,1.8,0.1,2.9c0,1,0,2.1,0,3.2
				c0,1.1,0,2.2,0,3.2c0,1-0.1,2-0.1,2.9c-0.1,2.5-0.6,4.9-1.5,7.2c-0.8,2.2-2.1,4.2-3.7,5.8c-1.6,1.7-3.7,3-6.1,3.9
				c-2.5,1-5.4,1.4-8.7,1.4c-3.4,0-6.2-0.5-8.7-1.4c-2.4-1-4.5-2.3-6.1-3.9c-1.6-1.7-2.9-3.6-3.7-5.8c-0.8-2.2-1.3-4.6-1.5-7.2
				c0-0.9-0.1-1.8-0.1-2.9c0-1,0-2.1,0-3.2c0-1.1,0-2.2,0-3.2C235.3,94.7,235.4,93.7,235.4,92.9z M266.2,93.2
				c-0.2-3.3-1.2-5.8-3.2-7.6c-1.9-1.8-4.5-2.7-7.6-2.7c-3.2,0-5.7,0.9-7.6,2.7c-1.9,1.8-3,4.3-3.2,7.6c-0.1,1.7-0.1,3.6-0.1,5.7
				s0,4,0.1,5.7c0.2,3.3,1.2,5.8,3.2,7.5c1.9,1.8,4.5,2.6,7.6,2.6c3.2,0,5.7-0.9,7.6-2.6c1.9-1.8,3-4.3,3.2-7.5
				c0.1-1.7,0.1-3.6,0.1-5.7S266.3,94.9,266.2,93.2z"/>
		</g>
		<path class="st0" d="M189.9,120.4l-16.6-42.9c-0.3-0.8-0.6-1.3-1-1.7c-0.4-0.4-0.9-0.6-1.6-0.6h-7.5c-0.7,0-1.3,0.2-1.6,0.6
			c-0.4,0.4-0.7,1-1,1.7L144,120.4c0,0.1-0.1,0.3-0.1,0.5c0,0.5,0.2,0.9,0.5,1.3c0.4,0.4,0.8,0.5,1.3,0.5h4.9c0.9,0,1.5-0.2,1.9-0.6
			c0.4-0.4,0.6-0.8,0.7-1.1l6-15.6h15.3l6,15.6c0.1,0.4,0.4,0.7,0.7,1.1c0.4,0.4,1,0.6,1.9,0.6h4.9c0.5,0,0.9-0.2,1.3-0.5
			c0.4-0.4,0.5-0.8,0.5-1.3C190,120.7,190,120.5,189.9,120.4z M167,85.6l4.3,11.1h-8.6L167,85.6z"/>
	</g>
	<g>
		<g>
			<path class="st0" d="M136.5,14.8c5.7,0,10,1.3,12.9,3.9c2.9,2.6,4.4,6.3,4.4,10.9c0,3.3-0.8,6.1-2.3,8.5
				c-1.5,2.3-3.7,4.1-6.7,5.2l9.4,16.8c0.1,0.3,0.2,0.5,0.2,0.7c0,0.4-0.1,0.8-0.4,1.1c-0.3,0.3-0.6,0.4-1.1,0.4h-5.8
				c-0.9,0-1.6-0.2-2-0.6c-0.4-0.4-0.7-0.8-0.9-1.2l-8.9-15.8h-9v15.8c0,0.5-0.2,0.9-0.5,1.3s-0.8,0.5-1.3,0.5H119
				c-0.5,0-0.9-0.2-1.3-0.5c-0.4-0.4-0.5-0.8-0.5-1.3V16.7c0-0.5,0.2-0.9,0.5-1.3c0.4-0.4,0.8-0.5,1.3-0.5H136.5z M126.3,36.2h9.9
				c2.6,0,4.6-0.4,6.2-1.4c1.5-0.9,2.3-2.6,2.3-5.2c0-2.5-0.8-4.2-2.3-5.1c-1.5-0.9-3.6-1.3-6.2-1.3h-9.9V36.2z"/>
			<path class="st0" d="M164.2,62.4c-0.5,0-0.9-0.2-1.3-0.5c-0.4-0.4-0.5-0.8-0.5-1.3V16.7c0-0.5,0.2-0.9,0.5-1.3
				c0.4-0.4,0.8-0.5,1.3-0.5h5.5c0.5,0,0.9,0.2,1.3,0.5c0.4,0.4,0.5,0.8,0.5,1.3v43.9c0,0.5-0.2,0.9-0.5,1.3s-0.8,0.5-1.3,0.5H164.2
				z"/>
		</g>
		<path class="st0" d="M111.9,60.1L95.3,17.2c-0.3-0.8-0.6-1.3-1-1.7c-0.4-0.4-0.9-0.6-1.6-0.6h-7.5c-0.7,0-1.3,0.2-1.6,0.6
			c-0.4,0.4-0.7,1-1,1.7L66,60.1c0,0.1-0.1,0.3-0.1,0.5c0,0.5,0.2,0.9,0.5,1.3c0.4,0.4,0.8,0.5,1.3,0.5h4.9c0.9,0,1.5-0.2,1.9-0.6
			c0.4-0.4,0.6-0.8,0.7-1.1l6-15.6h15.3l6,15.6c0.1,0.4,0.4,0.7,0.7,1.1c0.4,0.4,1,0.6,1.9,0.6h4.9c0.5,0,0.9-0.2,1.3-0.5
			c0.4-0.4,0.5-0.8,0.5-1.3C112,60.4,112,60.2,111.9,60.1z M89,25.3l4.3,11.1h-8.6L89,25.3z"/>
		<path class="st0" d="M224.8,60.1l-16.6-42.9c-0.3-0.8-0.6-1.3-1-1.7c-0.4-0.4-0.9-0.6-1.6-0.6h-7.5c-0.7,0-1.3,0.2-1.6,0.6
			c-0.4,0.4-0.7,1-1,1.7l-16.6,42.9c0,0.1-0.1,0.3-0.1,0.5c0,0.5,0.2,0.9,0.5,1.3c0.4,0.4,0.8,0.5,1.3,0.5h4.9
			c0.9,0,1.5-0.2,1.9-0.6s0.6-0.8,0.7-1.1l6-15.6h15.3l6,15.6c0.1,0.4,0.4,0.7,0.7,1.1c0.4,0.4,1,0.6,1.9,0.6h4.9
			c0.5,0,0.9-0.2,1.3-0.5c0.4-0.4,0.5-0.8,0.5-1.3C224.9,60.4,224.8,60.2,224.8,60.1z M201.8,25.3l4.3,11.1h-8.6L201.8,25.3z"/>
		<g>
			<path class="st0" d="M253.1,36.4l12.9-19.7c0.2-0.2,0.5-0.6,0.9-1.1c0.4-0.5,1.1-0.7,2-0.7h4.6c0.5,0,0.9,0.2,1.3,0.5
				c0.4,0.4,0.5,0.8,0.5,1.3v43.9c0,0.5-0.2,0.9-0.5,1.3c-0.4,0.4-0.8,0.5-1.3,0.5h-5.5c-0.5,0-0.9-0.2-1.3-0.5
				c-0.4-0.4-0.5-0.8-0.5-1.3V31.2l-8.8,12.2c-0.2,0.4-0.5,0.7-1,1.1c-0.4,0.4-0.9,0.6-1.6,0.6h-3.5c-0.6,0-1.2-0.2-1.6-0.6
				c-0.4-0.4-0.7-0.8-1-1.1L240,31.2v29.3c0,0.5-0.2,0.9-0.5,1.3c-0.4,0.4-0.8,0.5-1.3,0.5h-5.5c-0.5,0-0.9-0.2-1.3-0.5
				c-0.4-0.4-0.5-0.8-0.5-1.3V16.7c0-0.5,0.2-0.9,0.5-1.3c0.4-0.4,0.8-0.5,1.3-0.5h4.6c0.9,0,1.6,0.2,2,0.7c0.4,0.5,0.7,0.9,0.9,1.1
				L253.1,36.4z"/>
		</g>
		<g>
			<path class="st0" d="M37.6,36.4l12.9-19.7c0.2-0.2,0.5-0.6,0.9-1.1c0.4-0.5,1.1-0.7,2-0.7H58c0.5,0,0.9,0.2,1.3,0.5
				c0.4,0.4,0.5,0.8,0.5,1.3v43.9c0,0.5-0.2,0.9-0.5,1.3c-0.4,0.4-0.8,0.5-1.3,0.5h-5.5c-0.5,0-0.9-0.2-1.3-0.5
				c-0.4-0.4-0.5-0.8-0.5-1.3V31.2l-8.8,12.2c-0.2,0.4-0.5,0.7-1,1.1c-0.4,0.4-0.9,0.6-1.6,0.6h-3.5c-0.6,0-1.2-0.2-1.6-0.6
				c-0.4-0.4-0.7-0.8-1-1.1l-8.8-12.2v29.3c0,0.5-0.2,0.9-0.5,1.3c-0.4,0.4-0.8,0.5-1.3,0.5h-5.5c-0.5,0-0.9-0.2-1.3-0.5
				c-0.4-0.4-0.5-0.8-0.5-1.3V16.7c0-0.5,0.2-0.9,0.5-1.3c0.4-0.4,0.8-0.5,1.3-0.5h4.6c0.9,0,1.6,0.2,2,0.7c0.4,0.5,0.7,0.9,0.9,1.1
				L37.6,36.4z"/>
		</g>
	</g>
</g>
</svg>
